<svg width="832" height="174" viewBox="0 0 832 174" fill="none" xmlns="http://www.w3.org/2000/svg">
<path d="M803.877 136.326C793.637 136.326 785.744 133.254 780.197 127.11C774.736 120.881 772.005 112.22 772.005 101.126C772.005 89.1797 774.65 80.177 779.941 74.1183C785.317 67.9743 792.826 64.9023 802.469 64.9023C811.429 64.9023 818.426 67.505 823.461 72.7104C828.581 77.8304 831.141 85.4677 831.141 95.6223V101.894H788.901C789.072 107.868 789.84 112.732 791.205 116.486C792.656 120.156 794.661 122.886 797.221 124.678C799.866 126.47 803.066 127.366 806.821 127.366C809.808 127.366 812.453 126.94 814.757 126.086C817.146 125.148 819.194 123.953 820.901 122.502C822.608 120.966 823.973 119.302 824.997 117.51C825.936 117.937 826.661 118.662 827.173 119.686C827.77 120.625 828.069 121.734 828.069 123.014C828.069 125.148 827.173 127.238 825.381 129.286C823.674 131.334 821.029 133.041 817.445 134.406C813.946 135.686 809.423 136.326 803.877 136.326ZM814.117 94.2143C814.117 89.8623 813.733 86.065 812.965 82.8223C812.197 79.5797 810.96 77.105 809.253 75.3983C807.632 73.6063 805.413 72.7104 802.597 72.7104C799.866 72.7104 797.52 73.521 795.557 75.1423C793.68 76.7637 792.186 79.1957 791.077 82.4383C790.053 85.5957 789.413 89.521 789.157 94.2143H814.117Z" fill="black"/>
<path d="M734.804 136.327C729.343 136.327 724.82 135.73 721.236 134.535C717.738 133.341 715.135 131.677 713.428 129.543C711.722 127.325 710.868 124.765 710.868 121.863C710.868 119.218 711.466 117.255 712.66 115.975C713.855 114.61 715.263 113.714 716.884 113.287C718.506 112.775 719.956 112.519 721.236 112.519C721.236 115.847 721.748 118.791 722.772 121.351C723.882 123.826 725.46 125.789 727.508 127.239C729.556 128.605 732.074 129.287 735.06 129.287C739.583 129.287 742.911 128.349 745.044 126.471C747.178 124.594 748.244 122.247 748.244 119.431C748.244 117.469 747.775 115.805 746.836 114.439C745.983 113.074 744.404 111.751 742.1 110.471C739.796 109.191 736.596 107.783 732.5 106.247C728.063 104.541 724.308 102.749 721.236 100.871C718.164 98.9086 715.86 96.6472 714.324 94.0872C712.788 91.5272 712.02 88.3273 712.02 84.4873C712.02 78.0873 714.41 73.2659 719.188 70.0233C723.967 66.6953 730.282 65.0312 738.132 65.0312C743.082 65.0312 747.092 65.5859 750.164 66.6953C753.236 67.8046 755.498 69.2979 756.948 71.1753C758.399 72.9673 759.124 74.8873 759.124 76.9353C759.124 79.5806 758.185 81.6286 756.308 83.0793C754.516 84.5299 751.615 85.2552 747.604 85.2552C747.604 80.9886 746.666 77.7033 744.788 75.3993C742.911 73.0099 740.095 71.8153 736.34 71.8153C734.207 71.8153 732.287 72.1566 730.58 72.8392C728.959 73.5219 727.679 74.5459 726.74 75.9113C725.802 77.1913 725.332 78.7699 725.332 80.6473C725.332 82.5246 725.844 84.1886 726.868 85.6393C727.892 87.0046 729.642 88.3273 732.116 89.6073C734.591 90.8873 737.962 92.2953 742.228 93.8313C746.324 95.3673 749.78 97.0739 752.596 98.9513C755.498 100.743 757.716 102.919 759.252 105.479C760.788 108.039 761.556 111.111 761.556 114.695C761.556 121.607 759.167 126.941 754.388 130.695C749.695 134.45 743.167 136.327 734.804 136.327Z" fill="black"/>
<path d="M646.365 135.047V128.775H646.749C648.712 128.775 650.419 128.562 651.869 128.135C653.405 127.709 654.6 126.855 655.453 125.575C656.392 124.21 656.861 122.205 656.861 119.559V81.4153C656.861 78.8553 656.435 76.9779 655.581 75.7832C654.728 74.5033 653.576 73.6926 652.125 73.3513C650.675 72.9246 649.011 72.7113 647.133 72.7113H646.749V66.4393H670.301L672.733 77.4473H673.373C674.483 74.8873 675.72 72.6686 677.085 70.7913C678.536 68.9139 680.371 67.5059 682.589 66.5673C684.808 65.5433 687.709 65.0312 691.293 65.0312C696.157 65.0312 699.741 65.8846 702.045 67.5913C704.435 69.2979 705.629 71.7726 705.629 75.0153C705.629 78.4286 704.392 81.1593 701.917 83.2073C699.443 85.1699 695.816 86.1513 691.037 86.1513C691.037 83.7619 690.824 81.8419 690.397 80.3913C690.056 78.8553 689.416 77.7033 688.477 76.9353C687.539 76.1673 686.259 75.7832 684.637 75.7832C682.333 75.7832 680.456 76.6366 679.005 78.3433C677.555 79.9646 676.403 82.0126 675.549 84.4873C674.781 86.9619 674.227 89.5219 673.885 92.1673C673.629 94.8126 673.501 97.0313 673.501 98.8233V120.199C673.501 122.674 673.928 124.551 674.781 125.831C675.635 127.026 676.787 127.837 678.237 128.263C679.688 128.605 681.267 128.775 682.973 128.775H686.941V135.047H646.365Z" fill="black"/>
<path d="M611.467 136.326C601.227 136.326 593.334 133.254 587.787 127.11C582.326 120.881 579.595 112.22 579.595 101.126C579.595 89.1797 582.241 80.177 587.531 74.1183C592.907 67.9743 600.417 64.9023 610.059 64.9023C619.019 64.9023 626.017 67.505 631.051 72.7104C636.171 77.8304 638.731 85.4677 638.731 95.6223V101.894H596.491C596.662 107.868 597.43 112.732 598.795 116.486C600.246 120.156 602.251 122.886 604.811 124.678C607.457 126.47 610.657 127.366 614.411 127.366C617.398 127.366 620.043 126.94 622.347 126.086C624.737 125.148 626.785 123.953 628.491 122.502C630.198 120.966 631.563 119.302 632.587 117.51C633.526 117.937 634.251 118.662 634.763 119.686C635.361 120.625 635.659 121.734 635.659 123.014C635.659 125.148 634.763 127.238 632.971 129.286C631.265 131.334 628.619 133.041 625.035 134.406C621.537 135.686 617.014 136.326 611.467 136.326ZM621.707 94.2143C621.707 89.8623 621.323 86.065 620.555 82.8223C619.787 79.5797 618.55 77.105 616.843 75.3983C615.222 73.6063 613.003 72.7104 610.187 72.7104C607.457 72.7104 605.11 73.521 603.147 75.1423C601.27 76.7637 599.777 79.1957 598.667 82.4383C597.643 85.5957 597.003 89.521 596.747 94.2143H621.707Z" fill="black"/>
<path d="M508.337 79.1095C507.74 77.4028 507.014 76.0802 506.161 75.1415C505.393 74.2028 504.369 73.5628 503.089 73.2215C501.809 72.8802 500.273 72.7095 498.481 72.7095V66.4375H535.217V72.7095H531.249C529.457 72.7095 528.092 73.0935 527.153 73.8615C526.214 74.6295 525.745 75.8668 525.745 77.5735C525.745 78.4268 525.83 79.3228 526.001 80.2615C526.257 81.2002 526.513 82.0535 526.769 82.8215L535.473 107.014C536.156 108.891 536.796 110.896 537.393 113.03C538.076 115.163 538.673 117.211 539.185 119.174C539.782 121.051 540.252 122.758 540.593 124.294C540.849 122.928 541.233 121.392 541.745 119.686C542.257 117.894 542.812 116.102 543.409 114.31C544.092 112.432 544.689 110.768 545.201 109.318L554.161 83.8455C554.588 82.7362 554.886 81.6268 555.057 80.5175C555.313 79.4082 555.441 78.3415 555.441 77.3175C555.441 75.6108 554.886 74.4162 553.777 73.7335C552.668 73.0508 551.132 72.7095 549.169 72.7095H546.481V66.4375H574.385V72.7095H572.209C570.844 72.7095 569.692 72.9655 568.753 73.4775C567.814 73.9042 566.918 74.8002 566.065 76.1655C565.212 77.5308 564.273 79.5788 563.249 82.3095L544.177 135.046H529.201L508.337 79.1095Z" fill="black"/>
<path d="M466.898 136.326C461.949 136.326 457.895 135.302 454.738 133.254C451.666 131.12 449.191 128.39 447.314 125.062H446.29L443.218 135.046H420.306V128.774H421.33C423.037 128.774 424.658 128.56 426.194 128.134C427.73 127.707 428.967 126.854 429.906 125.574C430.845 124.294 431.314 122.374 431.314 119.814V52.6136C431.314 50.139 430.845 48.3043 429.906 47.1096C428.967 45.8296 427.73 45.019 426.194 44.6776C424.658 44.251 422.951 44.0376 421.074 44.0376H420.306V37.7656H447.954V60.2936C447.954 61.5736 447.912 63.2803 447.826 65.4136C447.741 67.4616 447.613 69.5096 447.442 71.5576C447.357 73.5203 447.271 75.0563 447.186 76.1656H447.826C449.789 72.7523 452.263 70.0643 455.25 68.1016C458.322 66.0536 462.333 65.0296 467.282 65.0296C475.645 65.0296 482.045 67.8883 486.482 73.6056C490.919 79.2376 493.138 88.1976 493.138 100.486C493.138 108.763 492.114 115.547 490.066 120.838C488.103 126.128 485.159 130.054 481.234 132.614C477.309 135.088 472.53 136.326 466.898 136.326ZM462.802 127.238C465.959 127.238 468.519 126.214 470.482 124.166C472.445 122.032 473.853 119.003 474.706 115.078C475.645 111.067 476.114 106.16 476.114 100.358C476.114 94.4696 475.645 89.6056 474.706 85.7656C473.853 81.8403 472.445 78.8963 470.482 76.9336C468.519 74.971 465.917 73.9896 462.674 73.9896C457.042 73.9896 453.159 76.1656 451.026 80.5176C448.978 84.8696 447.954 91.5256 447.954 100.486C447.954 106.288 448.381 111.152 449.234 115.078C450.173 119.003 451.709 122.032 453.842 124.166C456.061 126.214 459.047 127.238 462.802 127.238Z" fill="black"/>
<path d="M378.342 135.048V128.776H380.006C381.456 128.776 382.907 128.605 384.358 128.264C385.894 127.837 387.131 127.027 388.07 125.832C389.094 124.637 389.606 122.845 389.606 120.456V80.776C389.606 78.3867 389.094 76.6373 388.07 75.528C387.046 74.3333 385.808 73.5653 384.358 73.224C382.907 72.8827 381.456 72.712 380.006 72.712H378.854V66.44H406.246V120.2C406.246 122.675 406.715 124.552 407.654 125.832C408.592 127.027 409.83 127.837 411.366 128.264C412.902 128.605 414.395 128.776 415.846 128.776H417.382V135.048H378.342ZM397.286 54.408C394.64 54.408 392.379 53.7253 390.502 52.36C388.71 50.9947 387.814 48.776 387.814 45.704C387.814 42.5467 388.71 40.328 390.502 39.048C392.379 37.6827 394.683 37 397.414 37C399.974 37 402.192 37.6827 404.07 39.048C405.947 40.328 406.886 42.5467 406.886 45.704C406.886 48.776 405.947 50.9947 404.07 52.36C402.192 53.7253 399.931 54.408 397.286 54.408Z" fill="black"/>
<path d="M316.015 135.047V128.775H316.399C318.362 128.775 320.068 128.562 321.519 128.135C323.055 127.709 324.25 126.855 325.103 125.575C326.042 124.21 326.511 122.205 326.511 119.559V81.4153C326.511 78.8553 326.084 76.9779 325.231 75.7832C324.378 74.5033 323.226 73.6926 321.775 73.3513C320.324 72.9246 318.66 72.7113 316.783 72.7113H316.399V66.4393H339.951L342.383 77.4473H343.023C344.132 74.8873 345.37 72.6686 346.735 70.7913C348.186 68.9139 350.02 67.5059 352.239 66.5673C354.458 65.5433 357.359 65.0312 360.943 65.0312C365.807 65.0312 369.391 65.8846 371.695 67.5913C374.084 69.2979 375.279 71.7726 375.279 75.0153C375.279 78.4286 374.042 81.1593 371.567 83.2073C369.092 85.1699 365.466 86.1513 360.687 86.1513C360.687 83.7619 360.474 81.8419 360.047 80.3913C359.706 78.8553 359.066 77.7033 358.127 76.9353C357.188 76.1673 355.908 75.7832 354.287 75.7832C351.983 75.7832 350.106 76.6366 348.655 78.3433C347.204 79.9646 346.052 82.0126 345.199 84.4873C344.431 86.9619 343.876 89.5219 343.535 92.1673C343.279 94.8126 343.151 97.0313 343.151 98.8233V120.199C343.151 122.674 343.578 124.551 344.431 125.831C345.284 127.026 346.436 127.837 347.887 128.263C349.338 128.605 350.916 128.775 352.623 128.775H356.591V135.047H316.015Z" fill="black"/>
<path d="M285.465 136.326C279.492 136.326 274.201 135.174 269.593 132.87C264.985 130.566 261.358 126.854 258.713 121.734C256.068 116.529 254.745 109.617 254.745 100.998C254.745 91.8677 256.068 84.6997 258.713 79.4943C261.444 74.2037 265.07 70.449 269.593 68.2303C274.201 66.0117 279.364 64.9023 285.081 64.9023C289.86 64.9023 294.041 65.457 297.625 66.5663C301.294 67.6757 304.153 69.2117 306.201 71.1743C308.249 73.137 309.273 75.4837 309.273 78.2143C309.273 80.0917 308.804 81.7983 307.865 83.3343C307.012 84.785 305.518 85.937 303.385 86.7904C301.252 87.6437 298.35 88.0704 294.681 88.0704C294.681 85.169 294.382 82.5237 293.785 80.1343C293.273 77.745 292.334 75.825 290.969 74.3743C289.689 72.9237 287.812 72.1983 285.337 72.1983C282.606 72.1983 280.174 73.0517 278.041 74.7583C275.993 76.3797 274.414 79.281 273.305 83.4623C272.196 87.6437 271.641 93.4463 271.641 100.87C271.641 106.758 272.238 111.665 273.433 115.59C274.628 119.43 276.42 122.332 278.809 124.294C281.284 126.257 284.526 127.238 288.537 127.238C291.353 127.238 293.913 126.812 296.217 125.958C298.606 125.105 300.654 123.953 302.361 122.502C304.153 120.966 305.518 119.26 306.457 117.382C307.31 117.98 307.95 118.748 308.377 119.686C308.889 120.625 309.145 121.692 309.145 122.886C309.145 125.02 308.292 127.11 306.585 129.158C304.878 131.206 302.276 132.913 298.777 134.278C295.364 135.644 290.926 136.326 285.465 136.326Z" fill="black"/>
<path d="M217.544 136.327C212.083 136.327 207.56 135.73 203.976 134.535C200.477 133.341 197.875 131.677 196.168 129.543C194.461 127.325 193.608 124.765 193.608 121.863C193.608 119.218 194.205 117.255 195.4 115.975C196.595 114.61 198.003 113.714 199.624 113.287C201.245 112.775 202.696 112.519 203.976 112.519C203.976 115.847 204.488 118.791 205.512 121.351C206.621 123.826 208.2 125.789 210.248 127.239C212.296 128.605 214.813 129.287 217.8 129.287C222.323 129.287 225.651 128.349 227.784 126.471C229.917 124.594 230.984 122.247 230.984 119.431C230.984 117.469 230.515 115.805 229.576 114.439C228.723 113.074 227.144 111.751 224.84 110.471C222.536 109.191 219.336 107.783 215.24 106.247C210.803 104.541 207.048 102.749 203.976 100.871C200.904 98.9086 198.6 96.6472 197.064 94.0872C195.528 91.5272 194.76 88.3273 194.76 84.4873C194.76 78.0873 197.149 73.2659 201.928 70.0233C206.707 66.6953 213.021 65.0312 220.872 65.0312C225.821 65.0312 229.832 65.5859 232.904 66.6953C235.976 67.8046 238.237 69.2979 239.688 71.1753C241.139 72.9673 241.864 74.8873 241.864 76.9353C241.864 79.5806 240.925 81.6286 239.048 83.0793C237.256 84.5299 234.355 85.2552 230.344 85.2552C230.344 80.9886 229.405 77.7033 227.528 75.3993C225.651 73.0099 222.835 71.8153 219.08 71.8153C216.947 71.8153 215.027 72.1566 213.32 72.8392C211.699 73.5219 210.419 74.5459 209.48 75.9113C208.541 77.1913 208.072 78.7699 208.072 80.6473C208.072 82.5246 208.584 84.1886 209.608 85.6393C210.632 87.0046 212.381 88.3273 214.856 89.6073C217.331 90.8873 220.701 92.2953 224.968 93.8313C229.064 95.3673 232.52 97.0739 235.336 98.9513C238.237 100.743 240.456 102.919 241.992 105.479C243.528 108.039 244.296 111.111 244.296 114.695C244.296 121.607 241.907 126.941 237.128 130.695C232.435 134.45 225.907 136.327 217.544 136.327Z" fill="black"/>
<g clip-path="url(#clip0_2183_446)">
<path d="M251.937 211.611L270.969 176.267C230.489 181.1 161.675 194.301 210.25 208.439C270.969 226.111 329.875 248.311 265.532 254.655C201.188 260.999 174.001 280.939 192.125 258.736" stroke="black" stroke-width="37.1562"/>
<path d="M21.7857 95.5617L17.2017 103.883L0.559967 94.7144L5.14402 86.3936L13.4649 90.9776L21.7857 95.5617ZM58.2735 126.347L66.2386 131.525V131.525L58.2735 126.347ZM99.0833 108.343L108.572 107.875L99.0833 108.343ZM13.4649 90.9776L5.14402 86.3936C11.4232 74.9957 16.8505 66.8522 21.6984 61.7168C24.1107 59.1614 26.8576 56.8303 29.9909 55.4074C33.3612 53.877 37.515 53.289 41.6644 55.0354C45.4827 56.6424 47.8185 59.6222 49.2123 62.0451C50.6387 64.5247 51.5974 67.3149 52.2918 69.9543C53.6822 75.2396 54.4477 81.6645 54.9706 87.9197C55.4975 94.2223 55.8248 101.032 56.1816 106.976C56.5511 113.131 56.9492 118.293 57.5788 122.027C57.8979 123.92 58.2032 124.975 58.3855 125.432C58.7395 126.32 58.2427 124.274 55.6068 123.033C51.8556 121.268 48.9398 123.2 48.647 123.422C48.4478 123.574 49.0165 123.157 50.3084 121.17L58.2735 126.347L66.2386 131.525C64.5642 134.101 62.5734 136.699 60.1582 138.538C57.6494 140.449 52.861 142.74 47.5172 140.225C43.2888 138.235 41.4794 134.331 40.7376 132.471C39.8239 130.181 39.25 127.599 38.8431 125.186C38.0206 120.307 37.5796 114.176 37.2158 108.114C36.8392 101.841 36.5389 95.5096 36.0367 89.5025C35.5306 83.448 34.8656 78.3944 33.9169 74.7881C33.4417 72.9816 33.0037 71.9727 32.7429 71.5192C32.4494 71.009 32.8074 71.9219 34.2939 72.5475C36.1115 73.3125 37.5796 72.8286 37.8468 72.7073C37.877 72.6936 37.1034 73.0765 35.5146 74.7596C32.3602 78.1011 27.8621 84.532 21.7857 95.5617L13.4649 90.9776ZM58.2735 126.347L50.3084 121.17C54.3457 114.959 58.5796 102.593 62.8784 88.0681C66.9213 74.4086 70.9668 59.0372 74.5465 49.4087C75.4692 46.9269 76.4613 44.5399 77.5322 42.4936C78.4617 40.7174 80.001 38.0886 82.4042 36.1886C83.7244 35.1447 85.8396 33.8965 88.6602 33.6725C91.6827 33.4324 94.2835 34.4634 96.1795 35.8814C99.3001 38.2153 100.742 41.7362 101.478 43.8007C103.192 48.6156 104.477 56.0649 105.573 66.0713C106.696 76.3251 107.693 90.0413 108.572 107.875L99.0833 108.343L89.5948 108.81C88.7241 91.1471 87.7497 77.8549 86.6857 68.1398C85.5946 58.1774 84.4768 52.6974 83.5782 50.1737C83.0068 48.5688 83.0902 49.8181 84.8001 51.0968C85.9906 51.9872 87.8731 52.7948 90.1643 52.6128C92.2537 52.4469 93.6248 51.5383 94.1882 51.0928C95.0776 50.3896 95.052 49.9931 94.3663 51.3034C93.8219 52.3437 93.1482 53.8976 92.3555 56.0298C89.0735 64.8576 85.4619 78.7134 81.0972 93.4603C76.9886 107.342 72.0645 122.562 66.2386 131.525L58.2735 126.347ZM99.0833 108.343L108.572 107.875C109.193 120.473 109.822 129.253 110.522 135.088C110.875 138.024 111.216 139.957 111.511 141.148C111.925 142.82 111.966 141.831 110.749 140.485C109.898 139.544 108.069 138.062 105.257 137.839C102.572 137.626 100.681 138.704 99.8982 139.258C98.6926 140.111 98.4993 140.84 99.2009 139.636C100.318 137.718 101.791 134.358 103.987 129.296C108.086 119.848 114.025 106.098 122.343 94.7414C130.579 83.4977 142.675 72.537 159.538 72.5367L159.538 82.0367L159.538 91.5367C151.766 91.5368 144.611 96.4936 137.671 105.969C130.813 115.331 125.651 127.101 121.418 136.858C119.448 141.399 117.446 146.063 115.618 149.201C114.847 150.525 113.313 153.04 110.878 154.764C109.481 155.753 107.003 157.037 103.757 156.779C100.384 156.512 98.0188 154.735 96.6549 153.226C94.4121 150.746 93.5183 147.533 93.0685 145.716C92.4998 143.42 92.048 140.603 91.6578 137.352C90.873 130.812 90.219 121.47 89.5948 108.81L99.0833 108.343Z" fill="#DC7702"/>
</g>
<defs>
<clipPath id="clip0_2183_446">
<rect width="174" height="174" fill="white"/>
</clipPath>
</defs>
</svg>
