<svg width="266" height="266" viewBox="0 0 266 266" fill="none" xmlns="http://www.w3.org/2000/svg">
<g clip-path="url(#clip0_2183_476)">
<rect width="266" height="266" rx="80" fill="#FBBF24"/>
<g clip-path="url(#clip1_2183_476)">
<path d="M486.145 377.247L525.739 303.716C441.523 313.772 298.357 341.236 399.416 370.648C525.739 407.414 648.292 453.602 514.428 466.799C380.563 479.997 324.002 521.482 361.709 475.29" stroke="black" stroke-width="77.3021"/>
<path d="M7.3238 135.809L-2.21313 153.12L-36.8355 134.046L-27.2986 116.735L-9.98739 126.272L7.3238 135.809ZM83.2351 199.857L99.8062 210.629L83.2351 199.857ZM168.138 162.399L187.879 161.426L187.879 161.426L168.138 162.399ZM-9.98739 126.272L-27.2986 116.735C-14.235 93.0224 -2.94373 76.0802 7.14217 65.3962C12.1609 60.0798 17.8757 55.2299 24.3944 52.2698C31.4061 49.0858 40.048 47.8624 48.6806 51.4957C56.6244 54.8391 61.484 61.0385 64.3836 66.0791C67.3513 71.2379 69.3459 77.0428 70.7904 82.5339C73.6831 93.5298 75.2758 106.896 76.3637 119.91C77.4599 133.023 78.1408 147.189 78.8831 159.555C79.6518 172.361 80.48 183.1 81.7898 190.869C82.4538 194.808 83.089 197.003 83.4681 197.953C84.2047 199.8 83.1711 195.543 77.6872 192.963C69.883 189.29 63.8167 193.308 63.2077 193.772C62.7932 194.088 63.9763 193.22 66.664 189.085L83.2351 199.857L99.8062 210.629C96.3227 215.988 92.181 221.394 87.1561 225.22C81.9368 229.195 71.9746 233.961 60.8572 228.73C52.0601 224.59 48.2958 216.468 46.7524 212.598C44.8516 207.833 43.6576 202.462 42.8111 197.44C41.0999 187.29 40.1824 174.535 39.4254 161.924C38.642 148.873 38.0171 135.701 36.9724 123.203C35.9194 110.607 34.5361 100.093 32.5623 92.5904C31.5736 88.8321 30.6624 86.733 30.1198 85.7897C29.5091 84.7283 30.254 86.6274 33.3465 87.929C37.128 89.5206 40.1824 88.5139 40.7382 88.2615C40.8011 88.2329 39.1917 89.0295 35.8862 92.5311C29.3235 99.4829 19.9654 112.862 7.3238 135.809L-9.98739 126.272ZM83.2351 199.857L66.664 189.085C75.0636 176.163 83.8719 150.437 92.8156 120.219C101.227 91.8008 109.643 59.8213 117.09 39.7897C119.01 34.6264 121.074 29.6603 123.302 25.4031C125.236 21.7076 128.438 16.2387 133.438 12.2857C136.185 10.1139 140.585 7.51707 146.453 7.05106C152.742 6.55168 158.153 8.69664 162.097 11.6466C168.589 16.5022 171.59 23.8274 173.119 28.1224C176.686 38.1397 179.359 53.6376 181.639 74.4555C183.976 95.788 186.05 124.324 187.879 161.426L168.138 162.399L148.398 163.373C146.586 126.625 144.559 98.9709 142.346 78.759C140.076 58.0325 137.75 46.6316 135.881 41.3811C134.692 38.0422 134.865 40.6413 138.423 43.3017C140.9 45.1542 144.816 46.8343 149.583 46.4557C153.93 46.1105 156.782 44.2201 157.954 43.2934C159.805 41.8303 159.751 41.0055 158.325 43.7315C157.192 45.8959 155.791 49.1285 154.141 53.5646C147.313 71.9304 139.8 100.757 130.719 131.437C122.171 160.318 111.927 191.983 99.8062 210.629L83.2351 199.857ZM168.138 162.399L187.879 161.426C189.171 187.636 190.48 205.902 191.937 218.042C192.67 224.15 193.38 228.171 193.994 230.65C194.855 234.127 194.94 232.07 192.409 229.27C190.639 227.312 186.833 224.228 180.983 223.765C175.397 223.322 171.461 225.564 169.834 226.717C167.326 228.493 166.923 230.01 168.383 227.504C170.708 223.515 173.772 216.524 178.341 205.992C186.869 186.336 199.224 157.729 216.529 134.102C233.663 110.71 258.83 87.9071 293.912 87.9065L293.912 107.671L293.913 127.435C277.743 127.436 262.858 137.748 248.418 157.461C234.151 176.939 223.411 201.425 214.604 221.725C210.506 231.171 206.342 240.875 202.538 247.403C200.933 250.157 197.742 255.39 192.677 258.977C189.771 261.034 184.615 263.705 177.862 263.17C170.844 262.614 165.924 258.917 163.086 255.778C158.42 250.617 156.561 243.932 155.625 240.154C154.442 235.377 153.502 229.516 152.69 222.752C151.057 209.147 149.696 189.711 148.398 163.373L168.138 162.399Z" fill="#78350F"/>
</g>
</g>
<defs>
<clipPath id="clip0_2183_476">
<rect width="266" height="266" rx="80" fill="white"/>
</clipPath>
<clipPath id="clip1_2183_476">
<rect width="362" height="362" fill="white" transform="translate(-38 -63)"/>
</clipPath>
</defs>
</svg>
